<?xml version="1.0" encoding="UTF-8" standalone="no"?>
<!-- Generator: Adobe Illustrator 19.1.0, SVG Export Plug-In . SVG Version: 6.00 Build 0)  -->

<svg
   xmlns:dc="http://purl.org/dc/elements/1.1/"
   xmlns:cc="http://creativecommons.org/ns#"
   xmlns:rdf="http://www.w3.org/1999/02/22-rdf-syntax-ns#"
   xmlns:svg="http://www.w3.org/2000/svg"
   xmlns="http://www.w3.org/2000/svg"
   xmlns:sodipodi="http://sodipodi.sourceforge.net/DTD/sodipodi-0.dtd"
   xmlns:inkscape="http://www.inkscape.org/namespaces/inkscape"
   version="1.1"
   id="Capa_1"
   x="0px"
   y="0px"
   viewBox="0 0 511.99999 511.99999"
   xml:space="preserve"
   sodipodi:docname="noroutines.svg"
   inkscape:version="0.92.5 (2060ec1f9f, 2020-04-08)"
   width="512"
   height="512"><metadata
   id="metadata63"><rdf:RDF><cc:Work
       rdf:about=""><dc:format>image/svg+xml</dc:format><dc:type
         rdf:resource="http://purl.org/dc/dcmitype/StillImage" /><dc:title /></cc:Work></rdf:RDF></metadata><defs
   id="defs61" /><sodipodi:namedview
   pagecolor="#ffffff"
   bordercolor="#666666"
   borderopacity="1"
   objecttolerance="10"
   gridtolerance="10"
   guidetolerance="10"
   inkscape:pageopacity="0"
   inkscape:pageshadow="2"
   inkscape:window-width="1920"
   inkscape:window-height="995"
   id="namedview59"
   showgrid="false"
   inkscape:zoom="0.58059436"
   inkscape:cx="-447.45509"
   inkscape:cy="486.98095"
   inkscape:window-x="0"
   inkscape:window-y="0"
   inkscape:window-maximized="1"
   inkscape:current-layer="g882"
   fit-margin-top="0"
   fit-margin-left="0"
   fit-margin-right="0"
   fit-margin-bottom="0" />
<g
   id="g26"
   transform="translate(-8.25,105.51999)">
	
	
	
	
	
	
	
	
	
	
	
	<g
   id="g882"
   transform="matrix(1.2118644,0,0,1.2118644,17.950677,-95.819313)"><path
     inkscape:connector-curvature="0"
     style="fill:#cccccc"
     id="path2"
     d="m 398.23,342.51 v 34.95 c 0,16 -13.02,29.02 -29.03,29.02 H 37.27 c -16,0 -29.02,-13.02 -29.02,-29.02 v -34.95 c 0,-16 13.02,-29.02 29.02,-29.02 h 71.47 v -18 H 40.7 c -16.66,0 -30.2,-13.55 -30.2,-30.21 V 30.2 C 10.5,13.55 24.04,0 40.7,0 h 325.08 c 16.65,0 30.2,13.55 30.2,30.2 v 235.08 c 0,16.66 -13.55,30.21 -30.2,30.21 h -68.05 v 18 h 71.47 c 16.01,0 29.03,13.02 29.03,29.02 z m -15,34.95 v -34.95 c 0,-7.73 -6.29,-14.02 -14.03,-14.02 H 37.27 c -7.73,0 -14.02,6.29 -14.02,14.02 v 34.95 c 0,7.73 6.29,14.02 14.02,14.02 H 369.2 c 7.74,0 14.03,-6.29 14.03,-14.02 z M 380.98,265.28 V 30.2 c 0,-8.38 -6.82,-15.2 -15.2,-15.2 H 40.7 c -8.38,0 -15.2,6.82 -15.2,15.2 v 235.08 c 0,8.39 6.82,15.21 15.2,15.21 h 325.08 c 8.38,0 15.2,-6.82 15.2,-15.21 z m -98.25,48.21 v -18 H 123.74 v 18 z" /><path
     inkscape:connector-curvature="0"
     style="fill:#b3b3b3"
     id="path8"
     d="m 365.98,37.5 v 220.49 c 0,4.14 -3.36,7.5 -7.5,7.5 H 48 c -4.15,0 -7.5,-3.36 -7.5,-7.5 V 37.5 C 40.5,33.36 43.85,30 48,30 h 310.48 c 4.14,0 7.5,3.36 7.5,7.5 z m -15,212.99 V 219.5 h -59.61 c -2.97,7.31 -10.15,12.49 -18.52,12.49 -11.03,0 -20,-8.97 -20,-20 0,-11.02 8.97,-20 20,-20 8.37,0 15.55,5.19 18.53,12.51 h 59.6 V 78.49 H 237.59 l -18.85,18.86 c 1.11,2.49 1.75,5.25 1.75,8.15 0,11.02 -8.98,20 -20,20 -11.03,0 -20,-8.98 -20,-20 0,-11.03 8.97,-20 20,-20 2.63,0 5.13,0.52 7.44,1.45 l 21.26,-21.26 c 1.4,-1.41 3.31,-2.2 5.3,-2.2 H 350.98 V 45 H 55.5 v 65.5 h 48.52 l 18.86,-18.86 c -1.11,-2.49 -1.75,-5.25 -1.75,-8.15 0,-11.02 8.97,-20 20,-20 11.03,0 20,8.98 20,20 0,11.03 -8.97,20 -20,20 -2.63,0 -5.14,-0.52 -7.44,-1.45 l -21.26,21.26 c -1.4,1.41 -3.31,2.2 -5.3,2.2 H 55.5 v 14.75 h 206.09 c 2.97,-7.32 10.15,-12.51 18.53,-12.51 11.02,0 20,8.98 20,20 0,11.03 -8.98,20 -20,20 -8.38,0 -15.55,-5.18 -18.53,-12.49 H 55.5 V 170 h 118.13 c 1.99,0 3.9,0.79 5.3,2.19 l 21.25,21.25 c 2.31,-0.92 4.81,-1.45 7.44,-1.45 11.03,0 20,8.98 20,20 0,11.03 -8.97,20 -20,20 -11.02,0 -20,-8.97 -20,-20 0,-2.9 0.64,-5.65 1.75,-8.14 L 170.52,185 H 55.5 v 16.69 h 62.1 c 2.97,-7.32 10.15,-12.5 18.52,-12.5 11.03,0 20,8.97 20,20 0,11.02 -8.97,20 -20,20 -8.37,0 -15.55,-5.18 -18.52,-12.5 H 55.5 v 33.8 z M 285.12,147.74 c 0,-2.75 -2.25,-5 -5,-5 -2.76,0 -5,2.25 -5,5 0,2.76 2.24,5 5,5 2.75,0 5,-2.24 5,-5 z m -7.27,64.25 c 0,-2.75 -2.24,-5 -5,-5 -2.76,0 -5,2.25 -5,5 0,2.76 2.24,5 5,5 2.76,0 5,-2.24 5,-5 z m -65.23,0 c 0,-2.75 -2.24,-5 -5,-5 -2.75,0 -5,2.25 -5,5 0,2.76 2.25,5 5,5 2.76,0 5,-2.24 5,-5 z M 205.49,105.5 c 0,-2.76 -2.25,-5 -5,-5 -2.76,0 -5,2.24 -5,5 0,2.75 2.24,5 5,5 2.75,0 5,-2.25 5,-5 z M 146.13,83.49 c 0,-2.75 -2.24,-5 -5,-5 -2.76,0 -5,2.25 -5,5 0,2.76 2.24,5 5,5 2.76,0 5,-2.24 5,-5 z m -5.01,125.7 c 0,-2.76 -2.24,-5 -5,-5 -2.75,0 -5,2.24 -5,5 0,2.75 2.25,5 5,5 2.76,0 5,-2.25 5,-5 z" /><path
     inkscape:connector-curvature="0"
     style="fill:#cccccc"
     id="path10"
     d="m 355.48,352.48 c 4.14,0 7.5,3.36 7.5,7.5 0,4.15 -3.36,7.5 -7.5,7.5 h -22.5 c -4.14,0 -7.5,-3.35 -7.5,-7.5 0,-4.14 3.36,-7.5 7.5,-7.5 z" /><path
     inkscape:connector-curvature="0"
     style="fill:#b3b3b3"
     id="path20"
     d="m 181.49,352.48 c 4.14,0 7.5,3.36 7.5,7.5 0,4.15 -3.36,7.5 -7.5,7.5 h -129 c -4.14,0 -7.5,-3.35 -7.5,-7.5 0,-4.14 3.36,-7.5 7.5,-7.5 z" /></g>
</g>
<g
   id="g28"
   transform="translate(-8.25,105.51999)">
</g>
<g
   id="g30"
   transform="translate(-8.25,105.51999)">
</g>
<g
   id="g32"
   transform="translate(-8.25,105.51999)">
</g>
<g
   id="g34"
   transform="translate(-8.25,105.51999)">
</g>
<g
   id="g36"
   transform="translate(-8.25,105.51999)">
</g>
<g
   id="g38"
   transform="translate(-8.25,105.51999)">
</g>
<g
   id="g40"
   transform="translate(-8.25,105.51999)">
</g>
<g
   id="g42"
   transform="translate(-8.25,105.51999)">
</g>
<g
   id="g44"
   transform="translate(-8.25,105.51999)">
</g>
<g
   id="g46"
   transform="translate(-8.25,105.51999)">
</g>
<g
   id="g48"
   transform="translate(-8.25,105.51999)">
</g>
<g
   id="g50"
   transform="translate(-8.25,105.51999)">
</g>
<g
   id="g52"
   transform="translate(-8.25,105.51999)">
</g>
<g
   id="g54"
   transform="translate(-8.25,105.51999)">
</g>
<g
   id="g56"
   transform="translate(-8.25,105.51999)">
</g>
</svg>